<svg width="241" height="153" viewBox="0 0 241 153" fill="none" xmlns="http://www.w3.org/2000/svg">
<path d="M2.1075 107V86.52L41.1475 33.4H63.5475V89.08H73.7875V107H63.5475V123H44.3475V107H2.1075ZM21.9475 89.08H44.3475V58.36L21.9475 89.08ZM106.92 99.448C110.76 104.483 115.282 107 120.488 107C125.693 107 130.173 104.483 133.928 99.448C137.768 94.328 139.688 87.2453 139.688 78.2C139.688 69.1547 137.768 62.1147 133.928 57.08C130.173 51.96 125.693 49.4 120.488 49.4C115.282 49.4 110.76 51.96 106.92 57.08C103.165 62.1147 101.288 69.1547 101.288 78.2C101.288 87.2453 103.165 94.328 106.92 99.448ZM147.624 112.12C140.2 120.653 131.154 124.92 120.488 124.92C109.821 124.92 100.733 120.653 93.2235 112.12C85.7995 103.501 82.0875 92.1947 82.0875 78.2C82.0875 64.2053 85.7995 52.9413 93.2235 44.408C100.733 35.7893 109.821 31.48 120.488 31.48C131.154 31.48 140.2 35.7893 147.624 44.408C155.133 52.9413 158.888 64.2053 158.888 78.2C158.888 92.1947 155.133 103.501 147.624 112.12ZM167.233 107V86.52L206.273 33.4H228.673V89.08H238.913V107H228.673V123H209.473V107H167.233ZM187.073 89.08H209.473V58.36L187.073 89.08Z" fill="white"/>
<circle cx="95" cy="14" r="10" fill="white"/>
<circle cx="141" cy="14" r="10" fill="white"/>
</svg>
